<svg width="150" height="150" xmlns="http://www.w3.org/2000/svg"><defs><linearGradient x1="0%" y1="0%" x2="100%" y2="100%" id="a"><stop stop-color="#E21B1B" offset=".029%"/><stop stop-color="#FFC92E" offset="100%"/></linearGradient></defs><g fill="none" fill-rule="evenodd"><path fill="url(#a)" d="M0 0h150v150H0z"/><path d="M42.143 32.143H53.57v85.714H42.143c-5.523 0-10-4.477-10-10V42.143c0-5.523 4.477-10 10-10zM64.286 32.143h11.428c5.523 0 10 4.477 10 10v22.143H74.286c-5.523 0-10-4.477-10-10V32.143zM96.429 32.143h11.428c5.523 0 10 4.477 10 10v22.143H106.43c-5.523 0-10-4.477-10-10V32.143zM74.286 85.714h11.428v22.143c0 5.523-4.477 10-10 10H64.286V95.714c0-5.523 4.477-10 10-10zM106.429 85.714h11.428v22.143c0 5.523-4.477 10-10 10H96.43V95.714c0-5.523 4.477-10 10-10z" fill="#FFF"/></g></svg>